<svg width="45" height="45" viewBox="0 0 45 45" fill="none" xmlns="http://www.w3.org/2000/svg">
<path fill-rule="evenodd" clip-rule="evenodd" d="M21.2985 8.05015C16.9159 8.73956 13.5889 10.8102 11.2356 14.313C10.2559 15.7714 9.6248 17.2673 9.20619 19.1236C9.03395 19.8872 9.00281 20.319 9.00019 21.9752C8.99738 23.6862 9.02387 24.0458 9.21443 24.8917C9.58506 26.5361 10.2057 28.0647 11.0741 29.4718L11.399 29.998L10.7346 32.4182C10.3692 33.7493 10.0453 34.903 10.0147 34.9822C9.9816 35.0681 10.0103 35.1263 10.0862 35.1272C10.156 35.128 11.3659 34.829 12.7749 34.4626C15.2688 33.8145 15.3432 33.8011 15.5814 33.9562C16.0723 34.2758 17.9032 35.1156 18.6227 35.351C20.1507 35.8508 21.1152 35.9958 22.9356 35.9999C24.7982 36.0042 25.6146 35.8863 27.1886 35.3868C29.3997 34.6852 31.1428 33.6196 32.8568 31.9215C34.8899 29.9071 36.1282 27.6618 36.7436 24.8743C37.0188 23.6273 37.0839 21.3558 36.8829 20.0028C36.2096 15.465 33.2931 11.466 29.1735 9.43138C27.1922 8.45312 25.1001 7.97923 22.8562 8.0007C22.1281 8.00766 21.4272 8.02987 21.2985 8.05015ZM18.2355 14.3144C18.3565 14.3692 18.5117 14.5035 18.5805 14.6129C18.7937 14.9522 20.176 18.3296 20.176 18.5114C20.176 18.803 19.8448 19.348 19.2969 19.958C18.9343 20.3618 18.7727 20.6194 18.7724 20.7937C18.7713 21.4176 20.7058 23.7189 22.0924 24.7431C22.8855 25.329 24.7787 26.2968 25.1318 26.2968C25.3716 26.2968 25.7102 25.959 26.6085 24.8232C27.2014 24.0741 27.234 24.0487 27.5426 24.0984C27.7184 24.1268 28.6901 24.5599 29.702 25.0606L31.5421 25.9714L31.5733 26.4361C31.6439 27.4903 31.2472 28.4457 30.498 29.0259C29.3925 29.8814 28.0769 30.2339 26.7523 30.0293C25.1393 29.7802 22.48 28.6435 20.9711 27.5583C18.1065 25.4979 15.2423 21.8616 14.597 19.4659C14.4291 18.8424 14.4367 17.6318 14.613 16.9598C14.8929 15.892 15.7428 14.7209 16.4789 14.3888C16.9026 14.1975 17.8853 14.156 18.2355 14.3144Z" fill="#7027E2"/>
</svg>
